<svg baseProfile="full" height="100%" version="1.1" viewBox="25.0,5.0,475.0,200.0" width="100%" xmlns="http://www.w3.org/2000/svg" xmlns:ev="http://www.w3.org/2001/xml-events" xmlns:xlink="http://www.w3.org/1999/xlink"><defs /><g><line stroke="lightgrey" stroke-dasharray="2" x1="70.0" x2="69.0" y1="15.0" y2="15.0" /><line stroke="lightgrey" stroke-dasharray="2" x1="70.0" x2="69.0" y1="35.0" y2="35.0" /><line stroke="lightgrey" stroke-dasharray="2" x1="70.0" x2="69.0" y1="55.0" y2="55.0" /><line stroke="lightgrey" stroke-dasharray="2" x1="50.0" x2="69.0" y1="75.0" y2="75.0" /><line stroke="lightgrey" stroke-dasharray="2" x1="70.0" x2="69.0" y1="95.0" y2="95.0" /><line stroke="lightgrey" stroke-dasharray="2" x1="50.0" x2="69.0" y1="115.0" y2="115.0" /><line stroke="lightgrey" stroke-dasharray="2" x1="70.0" x2="69.0" y1="135.0" y2="135.0" /><line stroke="lightgrey" stroke-dasharray="2" x1="50.0" x2="69.0" y1="155.0" y2="155.0" /><line stroke="lightgrey" stroke-dasharray="2" x1="50.0" x2="49.0" y1="175.0" y2="175.0" /><line stroke="lightgrey" stroke-dasharray="2" x1="50.0" x2="49.0" y1="195.0" y2="195.0" /></g><g><line stroke="#c65353" stroke-width="2.0" x1="55.0" x2="55.0" y1="15.0" y2="35.0" /><line stroke="#c6c653" stroke-width="2.0" x1="55.0" x2="55.0" y1="35.0" y2="55.0" /><line stroke="#53c653" stroke-width="2.0" x1="55.0" x2="55.0" y1="55.0" y2="95.0" /><line stroke="#53c6c6" stroke-width="2.0" x1="35.0" x2="35.0" y1="75.0" y2="115.0" /><line stroke="#5353c6" stroke-width="2.0" x1="55.0" x2="55.0" y1="95.0" y2="100.0" /><line stroke="#c653c6" stroke-width="2.0" x1="35.0" x2="35.0" y1="115.0" y2="155.0" /><line stroke="#c65353" stroke-width="2.0" x1="55.0" x2="55.0" y1="135.0" y2="140.0" /><line stroke="#d98c8c" stroke-width="2.0" x1="35.0" x2="35.0" y1="155.0" y2="175.0" /><line stroke="#d9d98c" stroke-width="2.0" x1="35.0" x2="35.0" y1="175.0" y2="195.0" /></g><g><line stroke="white" stroke-width="6.0" x1="35.0" x2="40.0" y1="75.0" y2="75.0" /><line stroke="white" stroke-width="6.0" x1="35.0" x2="40.0" y1="115.0" y2="115.0" /><line stroke="white" stroke-width="6.0" x1="50.0" x2="55.0" y1="135.0" y2="135.0" /><line stroke="white" stroke-width="6.0" x1="35.0" x2="40.0" y1="155.0" y2="155.0" /></g><g><path d="M 55.0,60.0 a15.0,15.0 0 0,1 -15.0,15.0" fill="none" stroke="#53c653" stroke-width="2.0" /><line stroke="#53c653" stroke-width="2.0" x1="35.0" x2="40.0" y1="75.0" y2="75.0" /><path d="M 55.0,100.0 a15.0,15.0 0 0,1 -15.0,15.0" fill="none" stroke="#5353c6" stroke-width="2.0" /><line stroke="#5353c6" stroke-width="2.0" x1="35.0" x2="40.0" y1="115.0" y2="115.0" /><path d="M 35.0,120.0 a15.0,15.0 0 0,0 15.0,15.0" fill="none" stroke="#c653c6" stroke-width="2.0" /><line stroke="#c653c6" stroke-width="2.0" x1="50.0" x2="55.0" y1="135.0" y2="135.0" /><path d="M 55.0,140.0 a15.0,15.0 0 0,1 -15.0,15.0" fill="none" stroke="#c65353" stroke-width="2.0" /><line stroke="#c65353" stroke-width="2.0" x1="35.0" x2="40.0" y1="155.0" y2="155.0" /></g><g><circle cx="55.0" cy="15.0" fill="#c65353" id="NRepeatModeler" r="6.0" stroke="white" stroke-width="2.0" /><text dominant-baseline="middle" font-family="sans-serif" font-size="inherit" x="75.0" y="15.0">RepeatModeler</text><circle cx="55.0" cy="35.0" fill="#c6c653" id="NRepeatMasker" r="6.0" stroke="white" stroke-width="2.0" /><text dominant-baseline="middle" font-family="sans-serif" font-size="inherit" x="75.0" y="35.0">RepeatMasker</text><circle cx="55.0" cy="55.0" fill="#53c653" id="NSoftMaskGenome" r="6.0" stroke="white" stroke-width="2.0" /><text dominant-baseline="middle" font-family="sans-serif" font-size="inherit" x="75.0" y="55.0">SoftMask Genome</text><circle cx="35.0" cy="75.0" fill="#53c6c6" id="NBrakerwithRNAseq" r="6.0" stroke="white" stroke-width="2.0" /><text dominant-baseline="middle" font-family="sans-serif" font-size="inherit" x="75.0" y="75.0">Braker with RNAseq</text><circle cx="55.0" cy="95.0" fill="#5353c6" id="NBrakerwithoutRNAseq" r="6.0" stroke="white" stroke-width="2.0" /><text dominant-baseline="middle" font-family="sans-serif" font-size="inherit" x="75.0" y="95.0">Braker without RNAseq</text><circle cx="35.0" cy="115.0" fill="#c653c6" id="NMergeGFFS" r="6.0" stroke="white" stroke-width="2.0" /><text dominant-baseline="middle" font-family="sans-serif" font-size="inherit" x="75.0" y="115.0">Merge GFFS</text><circle cx="55.0" cy="135.0" fill="#c65353" id="NGenerateCDSAAsequences" r="6.0" stroke="white" stroke-width="2.0" /><text dominant-baseline="middle" font-family="sans-serif" font-size="inherit" x="75.0" y="135.0">Generate CDS &amp; AA sequences</text><circle cx="35.0" cy="155.0" fill="#d98c8c" id="NRenameGenes" r="6.0" stroke="white" stroke-width="2.0" /><text dominant-baseline="middle" font-family="sans-serif" font-size="inherit" x="75.0" y="155.0">Rename Genes</text><circle cx="35.0" cy="175.0" fill="#d9d98c" id="NFunctionalAnnotation" r="6.0" stroke="white" stroke-width="2.0" /><text dominant-baseline="middle" font-family="sans-serif" font-size="inherit" x="55.0" y="175.0">Functional Annotation</text><circle cx="35.0" cy="195.0" fill="#8cd98c" id="NGFFtoGTF" r="6.0" stroke="white" stroke-width="2.0" /><text dominant-baseline="middle" font-family="sans-serif" font-size="inherit" x="55.0" y="195.0">GFF to GTF</text></g></svg>